<svg width="502" height="526" viewBox="0 0 502 526" fill="none" xmlns="http://www.w3.org/2000/svg">
<circle cx="251" cy="263" r="244.04" fill="black"/>
<circle cx="251" cy="263" r="244.04" fill="black"/>
<circle cx="251" cy="263" r="244.04" fill="white"/>
<path d="M320.283 28.9365C411.447 55.8794 480.376 134.631 492.971 231.095C467.033 221.177 438.878 215.743 409.454 215.743C280.267 215.743 175.541 320.47 175.541 449.657C175.541 465.745 177.164 481.454 180.258 496.628C91.6345 469.829 24.3083 393.985 9.85034 300.667C35.5064 310.339 63.3097 315.632 92.3494 315.632C221.536 315.632 326.263 210.905 326.263 81.7178C326.263 63.5669 324.195 45.8991 320.283 28.9365Z" fill="black"/>
</svg>
